2.6Hz3min_grf.mot
version=1
nRows=12
nColumns 19
inDegrees=yes
endheader
time	1_ground_force_vx	1_ground_force_vy	1_ground_force_vz	1_ground_force_px	1_ground_force_py	1_ground_force_pz	1_ground_torque_x	1_ground_torque_y	1_ground_torque_z	2_ground_force_vx	2_ground_force_vy	2_ground_force_vz	2_ground_force_px	2_ground_force_py	2_ground_force_pz	2_ground_torque_x	2_ground_torque_y	2_ground_torque_z
            1.253500	           -5.721850	          402.447847	          -20.638552	           -0.216863	            0.006000	           -0.352714	            0.008260	           -0.580939	            0.029792	            1.367165	          351.090762	           26.358431	           -0.258745	            0.005623	           -0.718354	            0.004514	            1.159158	            0.087025
            1.254000	           -6.000154	          407.138830	          -21.580747	           -0.217099	            0.005999	           -0.352377	            0.010306	           -0.699325	            0.037068	            2.200905	          353.852691	           27.306490	           -0.258970	            0.005624	           -0.718662	            0.007185	            1.155153	            0.089142
            1.254500	           -6.139674	          410.566241	          -22.115990	           -0.217208	            0.006000	           -0.352627	            0.010775	           -0.720543	            0.038814	            2.941507	          356.430979	           28.019292	           -0.259154	            0.005623	           -0.718591	            0.009638	            1.167808	            0.091802
            1.255000	           -6.784704	          414.536287	          -23.106222	           -0.217340	            0.005999	           -0.352429	            0.011797	           -0.720808	            0.040178	            3.778467	          358.272982	           28.729425	           -0.259816	            0.005621	           -0.718754	            0.012605	            1.195193	            0.095841
            1.255500	           -7.291376	          418.324687	          -23.776577	           -0.217446	            0.006000	           -0.352559	            0.012291	           -0.705148	            0.040079	            4.940157	          361.036096	           29.677345	           -0.259929	            0.005622	           -0.719101	            0.016602	            1.213312	            0.099735
            1.256000	           -7.752106	          421.572330	          -24.449365	           -0.217168	            0.006001	           -0.352769	            0.012623	           -0.686445	            0.039811	            5.495415	          363.060783	           30.529040	           -0.260083	            0.005621	           -0.718962	            0.017670	            1.167382	            0.098163
            1.256500	           -8.213962	          426.624006	          -25.435414	           -0.217449	            0.006000	           -0.352592	            0.012971	           -0.673690	            0.040166	            6.422711	          365.824161	           31.148562	           -0.260345	            0.005621	           -0.719356	            0.020882	            1.189421	            0.101275
            1.257000	           -8.674709	          430.592514	          -26.059254	           -0.217554	            0.005999	           -0.352454	            0.013663	           -0.678199	            0.041044	            7.258945	          367.850868	           31.718569	           -0.260451	            0.005621	           -0.719365	            0.023620	            1.196939	            0.103208
            1.257500	           -8.997850	          436.002585	          -26.539684	           -0.217670	            0.005998	           -0.352106	            0.016581	           -0.803467	            0.048907	            7.341695	          370.978875	           32.527476	           -0.260592	            0.005622	           -0.719869	            0.025274	            1.277123	            0.111978
            1.258000	           -9.825716	          440.151909	          -27.299408	           -0.217819	            0.005998	           -0.352244	            0.018690	           -0.837234	            0.051927	            8.032851	          374.293054	           33.383710	           -0.261100	            0.005620	           -0.719917	            0.027274	            1.270834	            0.113347
            1.258500	          -10.104346	          445.384052	          -28.330995	           -0.217905	            0.005998	           -0.352130	            0.019257	           -0.848817	            0.053993	            8.541403	          376.316400	           34.563922	           -0.261380	            0.005620	           -0.720068	            0.031289	            1.378517	            0.126614
            1.259000	          -10.564477	          449.711912	          -28.678154	           -0.217713	            0.005998	           -0.352277	            0.018686	           -0.795430	            0.050725	            8.767944	          378.524819	           35.181772	           -0.261657	            0.005619	           -0.720235	            0.031383	            1.354837	            0.125925
